SEQUENCE
FRAME
PATCH
13 6
1780 40 515
1780 35 532
1780 20 544
1780 0 549
1780 -20 544
1780 -35 532
1780 -40 515
1780 -35 498
1780 -20 486
1780 0 481
1780 20 486
1780 35 498
1780 40 515
1240 190 518
1240 165 577
1240 95 620
1240 0 636
1240 -95 620
1240 -165 577
1240 -190 518
1240 -165 459
1240 -95 416
1240 0 400
1240 95 416
1240 165 459
1240 190 518
520 330 522
520 286 612
520 165 678
520 0 702
520 -165 678
520 -286 612
520 -330 522
520 -286 432
520 -165 366
520 0 342
520 165 366
520 286 432
520 330 522
-220 350 522
-220 303 616
-220 175 685
-220 0 710
-220 -175 685
-220 -303 616
-220 -350 522
-220 -303 428
-220 -175 359
-220 0 334
-220 175 359
-220 303 428
-220 350 522
-940 280 518
-940 242 594
-940 140 650
-940 0 670
-940 -140 650
-940 -242 594
-940 -280 518
-940 -242 442
-940 -140 386
-940 0 366
-940 140 386
-940 242 442
-940 280 518
-1520 160 514
-1520 139 564
-1520 80 601
-1520 0 614
-1520 -80 601
-1520 -139 564
-1520 -160 514
-1520 -139 464
-1520 -80 427
-1520 0 414
-1520 80 427
-1520 139 464
-1520 160 514
eon.bmp

PATCH
9 3
605 300 605
403 300 649
-85 300 667
-573 300 649
-775 300 605
-573 300 561
-85 300 543
403 300 561
605 300 605
190 680 630
38 680 665
-330 680 680
-698 680 665
-850 680 630
-698 680 595
-330 680 580
38 680 595
190 680 630
-260 1010 650
-351 1010 674
-570 1010 684
-789 1010 674
-880 1010 650
-789 1010 626
-570 1010 616
-351 1010 626
-260 1010 650
31

PATCH
9 3
605 -300 605
403 -300 649
-85 -300 667
-573 -300 649
-775 -300 605
-573 -300 561
-85 -300 543
403 -300 561
605 -300 605
190 -680 630
38 -680 665
-330 -680 680
-698 -680 665
-850 -680 630
-698 -680 595
-330 -680 580
38 -680 595
190 -680 630
-260 -1010 650
-351 -1010 674
-570 -1010 684
-789 -1010 674
-880 -1010 650
-789 -1010 626
-570 -1010 616
-351 -1010 626
-260 -1010 650
31

PATCH
9 4
-320 1068 500
-320 1051 541
-320 1010 558
-320 969 541
-320 952 500
-320 969 459
-320 1010 442
-320 1051 459
-320 1068 500
-650 1132 500
-650 1096 586
-650 1010 622
-650 924 586
-650 888 500
-650 924 414
-650 1010 378
-650 1096 414
-650 1132 500
-1440 1140 500
-1440 1102 592
-1440 1010 630
-1440 918 592
-1440 880 500
-1440 918 408
-1440 1010 370
-1440 1102 408
-1440 1140 500
-1780 1098 500
-1780 1072 562
-1780 1010 588
-1780 948 562
-1780 922 500
-1780 948 438
-1780 1010 412
-1780 1072 438
-1780 1098 500
cx_engine.bmp

PATCH
9 4
-320 -952 500
-320 -969 541
-320 -1010 558
-320 -1051 541
-320 -1068 500
-320 -1051 459
-320 -1010 442
-320 -969 459
-320 -952 500
-650 -888 500
-650 -924 586
-650 -1010 622
-650 -1096 586
-650 -1132 500
-650 -1096 414
-650 -1010 378
-650 -924 414
-650 -888 500
-1440 -880 500
-1440 -918 592
-1440 -1010 630
-1440 -1102 592
-1440 -1140 500
-1440 -1102 408
-1440 -1010 370
-1440 -918 408
-1440 -880 500
-1780 -922 500
-1780 -948 562
-1780 -1010 588
-1780 -1072 562
-1780 -1098 500
-1780 -1072 438
-1780 -1010 412
-1780 -948 438
-1780 -922 500
cx_engine.bmp

PATCH
9 4
1020 0 520
923 166 520
690 235 520
457 166 520
360 0 520
457 -166 520
690 -235 520
923 -166 520
1020 0 520
976 0 690
892 144 690
690 204 690
488 144 690
404 0 690
488 -144 690
690 -204 690
892 -144 690
976 0 690
855 0 814
807 83 814
690 118 814
573 83 814
525 0 814
573 -83 814
690 -118 814
807 -83 814
855 0 814
690 0 860
690 0 860
690 0 860
690 0 860
690 0 860
690 0 860
690 0 860
690 0 860
690 0 860
helmet.bmp

PATCH
7 3
-1780 1062 500
-1780 1036 545
-1780 984 545
-1780 958 500
-1780 984 455
-1780 1036 455
-1780 1062 500
-1847 1044 500
-1847 1027 530
-1847 993 530
-1847 976 500
-1847 993 470
-1847 1027 470
-1847 1044 500
-1930 1010 500
-1930 1010 500
-1930 1010 500
-1930 1010 500
-1930 1010 500
-1930 1010 500
-1930 1010 500
basic_flame.bmp

PATCH
7 3
-1780 -958 500
-1780 -984 545
-1780 -1036 545
-1780 -1062 500
-1780 -1036 455
-1780 -984 455
-1780 -958 500
-1847 -976 500
-1847 -993 530
-1847 -1027 530
-1847 -1044 500
-1847 -1027 470
-1847 -993 470
-1847 -976 500
-1930 -1010 500
-1930 -1010 500
-1930 -1010 500
-1930 -1010 500
-1930 -1010 500
-1930 -1010 500
-1930 -1010 500
basic_flame.bmp

SEQUENCE
FRAME
PATCH
13 6
1780 40 515
1780 35 532
1780 20 544
1780 0 549
1780 -20 544
1780 -35 532
1780 -40 515
1780 -35 498
1780 -20 486
1780 0 481
1780 20 486
1780 35 498
1780 40 515
1240 190 518
1240 165 577
1240 95 620
1240 0 636
1240 -95 620
1240 -165 577
1240 -190 518
1240 -165 459
1240 -95 416
1240 0 400
1240 95 416
1240 165 459
1240 190 518
520 330 522
520 286 612
520 165 678
520 0 702
520 -165 678
520 -286 612
520 -330 522
520 -286 432
520 -165 366
520 0 342
520 165 366
520 286 432
520 330 522
-220 350 522
-220 303 616
-220 175 685
-220 0 710
-220 -175 685
-220 -303 616
-220 -350 522
-220 -303 428
-220 -175 359
-220 0 334
-220 175 359
-220 303 428
-220 350 522
-940 280 518
-940 242 594
-940 140 650
-940 0 670
-940 -140 650
-940 -242 594
-940 -280 518
-940 -242 442
-940 -140 386
-940 0 366
-940 140 386
-940 242 442
-940 280 518
-1520 160 514
-1520 139 564
-1520 80 601
-1520 0 614
-1520 -80 601
-1520 -139 564
-1520 -160 514
-1520 -139 464
-1520 -80 427
-1520 0 414
-1520 80 427
-1520 139 464
-1520 160 514
eon.bmp

PATCH
9 3
605 300 605
403 300 649
-85 300 667
-573 300 649
-775 300 605
-573 300 561
-85 300 543
403 300 561
605 300 605
528 817 662
376 817 697
8 817 712
-359 817 697
-512 817 662
-359 817 627
8 817 612
376 817 627
528 817 662
773 1348 714
683 1348 738
463 1348 748
244 1348 738
153 1348 714
244 1348 690
463 1348 680
683 1348 690
773 1348 714
31

PATCH
9 3
605 -300 605
403 -300 649
-85 -300 667
-573 -300 649
-775 -300 605
-573 -300 561
-85 -300 543
403 -300 561
605 -300 605
528 -817 662
376 -817 697
8 -817 712
-359 -817 697
-512 -817 662
-359 -817 627
8 -817 612
376 -817 627
528 -817 662
773 -1348 714
683 -1348 738
463 -1348 748
244 -1348 738
153 -1348 714
244 -1348 690
463 -1348 680
683 -1348 690
773 -1348 714
31

PATCH
9 4
713 1406 564
713 1389 605
713 1348 622
713 1307 605
713 1290 564
713 1307 523
713 1348 506
713 1389 523
713 1406 564
383 1470 564
383 1435 650
383 1348 686
383 1262 650
383 1226 564
383 1262 478
383 1348 442
383 1435 478
383 1470 564
-407 1478 564
-407 1440 656
-407 1348 694
-407 1256 656
-407 1218 564
-407 1256 472
-407 1348 434
-407 1440 472
-407 1478 564
-747 1436 564
-747 1411 626
-747 1348 652
-747 1286 626
-747 1260 564
-747 1286 502
-747 1348 476
-747 1411 502
-747 1436 564
cx_engine.bmp

PATCH
9 4
713 -1290 564
713 -1307 605
713 -1348 622
713 -1389 605
713 -1406 564
713 -1389 523
713 -1348 506
713 -1307 523
713 -1290 564
383 -1226 564
383 -1262 650
383 -1348 686
383 -1435 650
383 -1470 564
383 -1435 478
383 -1348 442
383 -1262 478
383 -1226 564
-407 -1218 564
-407 -1256 656
-407 -1348 694
-407 -1440 656
-407 -1478 564
-407 -1440 472
-407 -1348 434
-407 -1256 472
-407 -1218 564
-747 -1260 564
-747 -1286 626
-747 -1348 652
-747 -1411 626
-747 -1436 564
-747 -1411 502
-747 -1348 476
-747 -1286 502
-747 -1260 564
cx_engine.bmp

PATCH
9 4
1020 0 520
923 166 520
690 235 520
457 166 520
360 0 520
457 -166 520
690 -235 520
923 -166 520
1020 0 520
976 0 690
892 144 690
690 204 690
488 144 690
404 0 690
488 -144 690
690 -204 690
892 -144 690
976 0 690
855 0 814
807 83 814
690 118 814
573 83 814
525 0 814
573 -83 814
690 -118 814
807 -83 814
855 0 814
690 0 860
690 0 860
690 0 860
690 0 860
690 0 860
690 0 860
690 0 860
690 0 860
690 0 860
helmet.bmp

PATCH
7 3
-747 1446 564
-747 1397 649
-747 1299 649
-747 1250 564
-747 1299 479
-747 1397 479
-747 1446 564
-1091 1413 564
-1091 1381 620
-1091 1316 620
-1091 1284 564
-1091 1316 508
-1091 1381 508
-1091 1413 564
-1512 1348 564
-1512 1348 564
-1512 1348 564
-1512 1348 564
-1512 1348 564
-1512 1348 564
-1512 1348 564
basic_flame.bmp

PATCH
7 3
-747 -1250 564
-747 -1299 649
-747 -1397 649
-747 -1446 564
-747 -1397 479
-747 -1299 479
-747 -1250 564
-1091 -1284 564
-1091 -1316 620
-1091 -1381 620
-1091 -1413 564
-1091 -1381 508
-1091 -1316 508
-1091 -1284 564
-1512 -1348 564
-1512 -1348 564
-1512 -1348 564
-1512 -1348 564
-1512 -1348 564
-1512 -1348 564
-1512 -1348 564
basic_flame.bmp

FRAME
PATCH
13 6
1780 40 515
1780 35 532
1780 20 544
1780 0 549
1780 -20 544
1780 -35 532
1780 -40 515
1780 -35 498
1780 -20 486
1780 0 481
1780 20 486
1780 35 498
1780 40 515
1240 190 518
1240 165 577
1240 95 620
1240 0 636
1240 -95 620
1240 -165 577
1240 -190 518
1240 -165 459
1240 -95 416
1240 0 400
1240 95 416
1240 165 459
1240 190 518
520 330 522
520 286 612
520 165 678
520 0 702
520 -165 678
520 -286 612
520 -330 522
520 -286 432
520 -165 366
520 0 342
520 165 366
520 286 432
520 330 522
-220 350 522
-220 303 616
-220 175 685
-220 0 710
-220 -175 685
-220 -303 616
-220 -350 522
-220 -303 428
-220 -175 359
-220 0 334
-220 175 359
-220 303 428
-220 350 522
-940 280 518
-940 242 594
-940 140 650
-940 0 670
-940 -140 650
-940 -242 594
-940 -280 518
-940 -242 442
-940 -140 386
-940 0 366
-940 140 386
-940 242 442
-940 280 518
-1520 160 514
-1520 139 564
-1520 80 601
-1520 0 614
-1520 -80 601
-1520 -139 564
-1520 -160 514
-1520 -139 464
-1520 -80 427
-1520 0 414
-1520 80 427
-1520 139 464
-1520 160 514
eon.bmp

PATCH
9 3
605 300 605
403 300 649
-85 300 667
-573 300 649
-775 300 605
-573 300 561
-85 300 543
403 300 561
605 300 605
560 830 665
408 830 700
40 830 715
-328 830 700
-480 830 665
-328 830 630
40 830 615
408 830 630
560 830 665
870 1380 720
779 1380 744
560 1380 754
341 1380 744
250 1380 720
341 1380 696
560 1380 686
779 1380 696
870 1380 720
31

PATCH
9 3
605 -300 605
403 -300 649
-85 -300 667
-573 -300 649
-775 -300 605
-573 -300 561
-85 -300 543
403 -300 561
605 -300 605
560 -830 665
408 -830 700
40 -830 715
-328 -830 700
-480 -830 665
-328 -830 630
40 -830 615
408 -830 630
560 -830 665
870 -1380 720
779 -1380 744
560 -1380 754
341 -1380 744
250 -1380 720
341 -1380 696
560 -1380 686
779 -1380 696
870 -1380 720
31

PATCH
9 4
810 1438 570
810 1421 611
810 1380 628
810 1339 611
810 1322 570
810 1339 529
810 1380 512
810 1421 529
810 1438 570
480 1502 570
480 1466 656
480 1380 692
480 1294 656
480 1258 570
480 1294 484
480 1380 448
480 1466 484
480 1502 570
-310 1510 570
-310 1472 662
-310 1380 700
-310 1288 662
-310 1250 570
-310 1288 478
-310 1380 440
-310 1472 478
-310 1510 570
-650 1468 570
-650 1442 632
-650 1380 658
-650 1318 632
-650 1292 570
-650 1318 508
-650 1380 482
-650 1442 508
-650 1468 570
cx_engine.bmp

PATCH
9 4
810 -1322 570
810 -1339 611
810 -1380 628
810 -1421 611
810 -1438 570
810 -1421 529
810 -1380 512
810 -1339 529
810 -1322 570
480 -1258 570
480 -1294 656
480 -1380 692
480 -1466 656
480 -1502 570
480 -1466 484
480 -1380 448
480 -1294 484
480 -1258 570
-310 -1250 570
-310 -1288 662
-310 -1380 700
-310 -1472 662
-310 -1510 570
-310 -1472 478
-310 -1380 440
-310 -1288 478
-310 -1250 570
-650 -1292 570
-650 -1318 632
-650 -1380 658
-650 -1442 632
-650 -1468 570
-650 -1442 508
-650 -1380 482
-650 -1318 508
-650 -1292 570
cx_engine.bmp

PATCH
9 4
1020 0 520
923 166 520
690 235 520
457 166 520
360 0 520
457 -166 520
690 -235 520
923 -166 520
1020 0 520
976 0 690
892 144 690
690 204 690
488 144 690
404 0 690
488 -144 690
690 -204 690
892 -144 690
976 0 690
855 0 814
807 83 814
690 118 814
573 83 814
525 0 814
573 -83 814
690 -118 814
807 -83 814
855 0 814
690 0 860
690 0 860
690 0 860
690 0 860
690 0 860
690 0 860
690 0 860
690 0 860
690 0 860
helmet.bmp

PATCH
7 3
-650 1488 570
-650 1434 664
-650 1326 664
-650 1272 570
-650 1326 476
-650 1434 476
-650 1488 570
-1055 1451 570
-1055 1416 632
-1055 1344 632
-1055 1309 570
-1055 1344 508
-1055 1416 508
-1055 1451 570
-1550 1380 570
-1550 1380 570
-1550 1380 570
-1550 1380 570
-1550 1380 570
-1550 1380 570
-1550 1380 570
basic_flame.bmp

PATCH
7 3
-650 -1272 570
-650 -1326 664
-650 -1434 664
-650 -1488 570
-650 -1434 476
-650 -1326 476
-650 -1272 570
-1055 -1309 570
-1055 -1344 632
-1055 -1416 632
-1055 -1451 570
-1055 -1416 508
-1055 -1344 508
-1055 -1309 570
-1550 -1380 570
-1550 -1380 570
-1550 -1380 570
-1550 -1380 570
-1550 -1380 570
-1550 -1380 570
-1550 -1380 570
basic_flame.bmp

